<?xml version="1.0" encoding="iso-8859-1"?>
<!-- Generator: Adobe Illustrator 19.0.0, SVG Export Plug-In . SVG Version: 6.00 Build 0)  -->
<svg version="1.1" id="Capa_1" xmlns="http://www.w3.org/2000/svg" xmlns:xlink="http://www.w3.org/1999/xlink" x="0px" y="0px"
	 viewBox="0 0 423.28 423.28" style="enable-background:new 0 0 423.28 423.28;" xml:space="preserve">
<g>
	<g>
		<path d="M345.08,211.6c8.328-8.47,16.154-17.419,23.44-26.8c27.12-35.44,35.12-66,22.56-86.08c-6.08-9.68-19.84-21.12-50.8-21.12
			c-20.554,0.556-40.921,4.059-60.48,10.4c-14.96-53.84-40-88-68.16-88c-28.16,0-53.2,34.56-68.16,88
			C123.917,81.686,103.55,78.21,83,77.68c-31.04,0-44.72,11.52-50.8,21.12c-12.56,20-4.56,50.56,22.56,86
			c7.286,9.381,15.112,18.33,23.44,26.8c-8.328,8.47-16.154,17.419-23.44,26.8c-27.12,35.36-35.12,66-22.56,86.08
			c6.08,9.68,19.84,21.12,50.8,21.12c20.551-0.523,40.919-3.998,60.48-10.32c14.96,53.84,40,88,68.16,88
			c28.16,0,53.2-34.56,68.16-88c19.561,6.322,39.93,9.797,60.48,10.32c30.96,0,44.72-11.52,50.8-21.12
			c12.56-20.08,4.56-50.72-22.56-86.08C361.234,229.019,353.408,220.07,345.08,211.6z M83,329.6c-13.12,0-30.16-2.32-37.28-13.68
			c-8.72-13.84-0.8-38.56,21.76-67.84c6.886-8.853,14.285-17.294,22.16-25.28c12.823,12.002,26.311,23.273,40.4,33.76
			c1.699,21.241,4.907,42.334,9.6,63.12C121.336,325.698,102.259,329.039,83,329.6z M128.68,235.6c-9.84-8-19.12-16-27.68-24
			c8.56-8,17.84-16,27.68-24c0,8-0.48,16-0.48,24S128.36,227.6,128.68,235.6z M130.04,166.56l-0.08,0.16
			c-14.083,10.494-27.571,21.765-40.4,33.76c-7.793-8.021-15.112-16.488-21.92-25.36c-22.48-29.28-30.4-54-21.76-67.84
			C53,96,69.88,93.6,83.16,93.6c19.206,0.57,38.229,3.911,56.48,9.92C134.949,124.279,131.741,145.346,130.04,166.56z
			 M275.64,154.16c-6.48-4.48-13.12-8.88-19.92-13.2c-8.96-5.6-17.92-10.88-26.88-16c12.837-6.147,25.973-11.647,39.36-16.48
			C271.519,123.558,274.003,138.808,275.64,154.16z M211.64,15.6c19.2,0,40,29.12,52.96,77.36
			c-18.121,6.401-35.811,13.964-52.96,22.64c-17.143-8.758-34.833-16.4-52.96-22.88C171.64,44.72,192.44,15.6,211.64,15.6z
			 M154.76,108.64c13.387,4.833,26.523,10.333,39.36,16.48c-8.96,4.96-17.92,10.24-26.88,16c-6.8,4.32-13.44,8.72-19.92,13.2
			C148.958,138.968,151.441,123.718,154.76,108.64z M147.64,269.04c6.48,4.48,13.12,8.88,19.92,13.2c8.96,5.68,17.92,10.88,26.88,16
			c-13.44,6.4-26.64,11.92-39.36,16.48C151.764,299.641,149.28,284.392,147.64,269.04z M211.64,407.6c-19.2,0-40-29.12-52.96-77.36
			c18.118-6.408,35.808-13.971,52.96-22.64c17.146,8.751,34.836,16.393,52.96,22.88C251.64,378.48,230.84,407.6,211.64,407.6z
			 M268.52,314.56c-12.72-4.56-25.92-10.08-39.36-16.48c8.96-4.96,17.92-10.24,26.88-16c6.8-4.32,13.44-8.72,19.92-13.2
			C274.32,284.232,271.836,299.481,268.52,314.56z M277.88,248.16c-9.68,7.04-19.76,13.92-30.32,20.56
			c-11.92,7.52-24,14.4-35.92,20.64c-12-6.32-24-13.2-35.92-20.64c-10.48-6.64-20.64-13.52-30.32-20.56
			c-0.8-11.76-1.28-24-1.28-36.56s0.48-24.8,1.28-36.56c9.68-7.04,19.76-13.92,30.32-20.56c11.92-7.52,24-14.4,35.92-20.64
			c12,6.32,24,13.2,35.92,20.64c10.48,6.64,20.64,13.52,30.32,20.56c0.8,11.76,1.28,24,1.28,36.56s-0.56,24.8-1.36,36.56H277.88z
			 M340.12,93.52c13.12,0,30.16,2.4,37.28,13.68c8.72,13.84,0.8,38.56-21.76,67.84c-6.808,8.872-14.127,17.339-21.92,25.36v-0.16
			c-12.829-11.995-26.317-23.266-40.4-33.76c-1.731-21.189-4.966-42.229-9.68-62.96C301.887,97.484,320.91,94.116,340.12,93.52z
			 M294.6,187.6c9.84,8,19.12,16,27.68,24c-8.56,8-17.84,16-27.68,24c0-8,0.48-16,0.48-24S294.92,195.6,294.6,187.6z M377.64,316
			c-7.12,11.28-24,13.68-37.28,13.68c-19.29-0.579-38.395-3.948-56.72-10c4.663-20.761,7.844-41.828,9.52-63.04
			c14.089-10.487,27.577-21.758,40.4-33.76c7.845,7.963,15.217,16.377,22.08,25.2l0.24,0.08C378.36,277.44,386.28,302.16,377.64,316
			z"/>
	</g>
</g>
<g>
	<g>
		<path d="M211.64,173.84c-20.854,0-37.76,16.906-37.76,37.76c0,20.854,16.906,37.76,37.76,37.76c20.854,0,37.76-16.906,37.76-37.76
			C249.4,190.746,232.494,173.84,211.64,173.84z M211.64,233.36C211.64,233.36,211.64,233.36,211.64,233.36
			c-12.018,0-21.76-9.742-21.76-21.76c0-12.018,9.742-21.76,21.76-21.76c12.018,0,21.76,9.742,21.76,21.76
			S223.658,233.36,211.64,233.36z"/>
	</g>
</g>
<g>
</g>
<g>
</g>
<g>
</g>
<g>
</g>
<g>
</g>
<g>
</g>
<g>
</g>
<g>
</g>
<g>
</g>
<g>
</g>
<g>
</g>
<g>
</g>
<g>
</g>
<g>
</g>
<g>
</g>
</svg>
